<svg width="705" height="315" viewBox="0 0 705 315" fill="none" xmlns="http://www.w3.org/2000/svg">
<path d="M45.44 0.359991C58.88 0.359991 69.3867 4.30666 76.96 12.2C84.5333 19.9867 88.32 31.1333 88.32 45.64V113H83.04V45.96C83.04 32.7333 79.68 22.6533 72.96 15.72C66.3467 8.78666 56.9067 5.31999 44.64 5.31999C32.16 5.31999 22.56 8.99999 15.84 16.36C9.22667 23.6133 5.92 34.4933 5.92 49V113H0.480001V0.999992H5.76V25.32C8.85334 17 13.8133 10.76 20.64 6.6C27.4667 2.43999 35.7333 0.359991 45.44 0.359991ZM204.769 29.96V105C204.769 118.547 201.835 128.52 195.969 134.92C190.102 141.32 181.142 144.52 169.089 144.52C162.049 144.52 155.435 143.293 149.249 140.84C143.169 138.493 138.369 135.24 134.849 131.08L138.049 127.08C141.675 131.133 146.155 134.227 151.489 136.36C156.822 138.6 162.635 139.72 168.929 139.72C179.382 139.72 187.062 136.947 191.969 131.4C196.982 125.96 199.489 117.373 199.489 105.64V89.8C196.822 96.2 192.715 101.213 187.169 104.84C181.622 108.36 174.955 110.12 167.169 110.12C156.395 110.12 147.969 107.133 141.889 101.16C135.809 95.1867 132.769 86.6 132.769 75.4V29.96H138.049V75.08C138.049 84.8933 140.555 92.4133 145.569 97.64C150.689 102.76 157.942 105.32 167.329 105.32C177.249 105.32 185.089 102.227 190.849 96.04C196.609 89.8533 199.489 81.5867 199.489 71.24V29.96H204.769ZM281.091 108.68C286.745 108.68 291.971 107.667 296.771 105.64C301.571 103.507 305.571 100.413 308.771 96.36L311.971 99.88C308.345 104.36 303.811 107.773 298.371 110.12C293.038 112.36 287.225 113.48 280.931 113.48C272.931 113.48 265.731 111.72 259.331 108.2C252.931 104.573 247.918 99.56 244.291 93.16C240.665 86.76 238.851 79.5067 238.851 71.4C238.851 63.2933 240.558 56.04 243.971 49.64C247.385 43.24 252.078 38.28 258.051 34.76C264.131 31.1333 271.011 29.32 278.691 29.32C285.731 29.32 292.078 31.0267 297.731 34.44C303.385 37.7467 307.865 42.28 311.171 48.04C314.585 53.8 316.505 60.1467 316.931 67.08L245.251 81.32C247.278 89.64 251.491 96.3067 257.891 101.32C264.291 106.227 272.025 108.68 281.091 108.68ZM278.691 34.12C271.971 34.12 265.998 35.72 260.771 38.92C255.545 42.0133 251.438 46.3867 248.451 52.04C245.465 57.5867 243.971 63.88 243.971 70.92C243.971 72.4133 244.078 74.44 244.291 77L311.491 63.88C310.745 58.5467 308.931 53.64 306.051 49.16C303.171 44.5733 299.385 40.9467 294.691 38.28C289.998 35.5067 284.665 34.12 278.691 34.12ZM383.779 108.68C389.432 108.68 394.659 107.667 399.459 105.64C404.259 103.507 408.259 100.413 411.459 96.36L414.659 99.88C411.032 104.36 406.499 107.773 401.059 110.12C395.725 112.36 389.912 113.48 383.619 113.48C375.619 113.48 368.419 111.72 362.019 108.2C355.619 104.573 350.605 99.56 346.979 93.16C343.352 86.76 341.539 79.5067 341.539 71.4C341.539 63.2933 343.245 56.04 346.659 49.64C350.072 43.24 354.765 38.28 360.739 34.76C366.819 31.1333 373.699 29.32 381.379 29.32C388.419 29.32 394.765 31.0267 400.419 34.44C406.072 37.7467 410.552 42.28 413.859 48.04C417.272 53.8 419.192 60.1467 419.619 67.08L347.939 81.32C349.965 89.64 354.179 96.3067 360.579 101.32C366.979 106.227 374.712 108.68 383.779 108.68ZM381.379 34.12C374.659 34.12 368.685 35.72 363.459 38.92C358.232 42.0133 354.125 46.3867 351.139 52.04C348.152 57.5867 346.659 63.88 346.659 70.92C346.659 72.4133 346.765 74.44 346.979 77L414.179 63.88C413.432 58.5467 411.619 53.64 408.739 49.16C405.859 44.5733 402.072 40.9467 397.379 38.28C392.685 35.5067 387.352 34.12 381.379 34.12ZM557.026 29.32C567.16 29.32 575.106 32.3067 580.866 38.28C586.733 44.2533 589.666 52.8933 589.666 64.2V113H584.386V64.52C584.386 54.7067 581.986 47.24 577.186 42.12C572.386 36.8933 565.56 34.28 556.706 34.28C546.786 34.28 538.893 37.3733 533.026 43.56C527.16 49.7467 524.226 57.96 524.226 68.2V113H518.946V64.52C518.946 54.7067 516.546 47.24 511.746 42.12C506.946 36.8933 500.173 34.28 491.426 34.28C481.4 34.28 473.453 37.3733 467.586 43.56C461.826 49.64 458.946 57.8533 458.946 68.2V113H453.666V29.96H458.786V49.96C461.346 43.56 465.453 38.5467 471.106 34.92C476.866 31.1867 483.746 29.32 491.746 29.32C499.746 29.32 506.466 31.24 511.906 35.08C517.346 38.92 520.973 44.52 522.786 51.88C525.24 44.9467 529.453 39.4533 535.426 35.4C541.4 31.3467 548.6 29.32 557.026 29.32ZM704.608 29.96V113H699.488V90.28C696.394 97.5333 691.648 103.24 685.248 107.4C678.954 111.453 671.754 113.48 663.648 113.48C656.074 113.48 649.194 111.72 643.008 108.2C636.821 104.573 631.914 99.56 628.288 93.16C624.768 86.76 623.008 79.5067 623.008 71.4C623.008 63.2933 624.768 56.04 628.288 49.64C631.914 43.24 636.821 38.28 643.008 34.76C649.194 31.1333 656.074 29.32 663.648 29.32C671.648 29.32 678.794 31.3467 685.088 35.4C691.488 39.4533 696.234 45.0533 699.328 52.2V29.96H704.608ZM663.808 108.68C670.528 108.68 676.554 107.133 681.888 104.04C687.328 100.84 691.594 96.4133 694.688 90.76C697.781 85.1067 699.328 78.6533 699.328 71.4C699.328 64.1467 697.781 57.7467 694.688 52.2C691.594 46.5467 687.328 42.1733 681.888 39.08C676.554 35.88 670.528 34.28 663.808 34.28C657.088 34.28 651.008 35.88 645.568 39.08C640.234 42.1733 636.021 46.5467 632.928 52.2C629.834 57.7467 628.288 64.1467 628.288 71.4C628.288 78.6533 629.834 85.1067 632.928 90.76C636.021 96.4133 640.234 100.84 645.568 104.04C651.008 107.133 657.088 108.68 663.808 108.68ZM116.64 170.36C129.12 170.36 138.827 173.987 145.76 181.24C152.8 188.387 156.32 198.787 156.32 212.44V283H151.04V212.76C151.04 200.387 148 191.053 141.92 184.76C135.84 178.467 127.253 175.32 116.16 175.32C104.853 175.32 96.16 178.68 90.08 185.4C84 192.013 80.96 202.093 80.96 215.64V283H75.68V212.76C75.68 200.387 72.64 191.053 66.56 184.76C60.5867 178.467 52.0533 175.32 40.96 175.32C29.76 175.32 21.12 178.627 15.04 185.24C8.96 191.853 5.92 201.987 5.92 215.64V283H0.480001V171H5.76V193.56C8.64 185.773 13.12 179.96 19.2 176.12C25.28 172.28 32.8 170.36 41.76 170.36C51.36 170.36 59.36 172.6 65.76 177.08C72.2667 181.56 76.7467 188.067 79.2 196.6C81.8667 187.853 86.4 181.293 92.8 176.92C99.3067 172.547 107.253 170.36 116.64 170.36ZM232.901 283.48C225.221 283.48 218.235 281.72 211.941 278.2C205.755 274.573 200.901 269.56 197.381 263.16C193.861 256.76 192.101 249.507 192.101 241.4C192.101 233.293 193.861 226.04 197.381 219.64C200.901 213.24 205.755 208.28 211.941 204.76C218.235 201.133 225.221 199.32 232.901 199.32C240.688 199.32 247.675 201.133 253.861 204.76C260.048 208.28 264.901 213.24 268.421 219.64C271.941 226.04 273.701 233.293 273.701 241.4C273.701 249.507 271.941 256.76 268.421 263.16C264.901 269.56 260.048 274.573 253.861 278.2C247.675 281.72 240.688 283.48 232.901 283.48ZM232.901 278.68C239.621 278.68 245.648 277.133 250.981 274.04C256.421 270.84 260.688 266.413 263.781 260.76C266.875 255.107 268.421 248.653 268.421 241.4C268.421 234.147 266.875 227.747 263.781 222.2C260.688 216.547 256.421 212.173 250.981 209.08C245.648 205.88 239.621 204.28 232.901 204.28C226.181 204.28 220.101 205.88 214.661 209.08C209.328 212.173 205.115 216.547 202.021 222.2C198.928 227.747 197.381 234.147 197.381 241.4C197.381 248.653 198.928 255.107 202.021 260.76C205.115 266.413 209.328 270.84 214.661 274.04C220.101 277.133 226.181 278.68 232.901 278.68ZM312.943 219.96C315.396 213.347 319.343 208.28 324.783 204.76C330.329 201.133 337.156 199.32 345.263 199.32V204.6H343.823C334.223 204.6 326.703 207.64 321.263 213.72C315.823 219.8 313.103 228.173 313.103 238.84V283H307.823V199.96H312.943V219.96ZM448.786 199.96V275C448.786 288.44 445.533 298.36 439.026 304.76C432.52 311.267 422.706 314.52 409.586 314.52C401.906 314.52 394.76 313.347 388.146 311C381.533 308.653 376.253 305.347 372.306 301.08L375.346 297.08C379.613 301.133 384.626 304.227 390.386 306.36C396.253 308.6 402.6 309.72 409.426 309.72C421.053 309.72 429.64 306.947 435.186 301.4C440.733 295.96 443.506 287.373 443.506 275.64V258.04C440.413 264.867 435.666 270.253 429.266 274.2C422.866 278.147 415.56 280.12 407.346 280.12C399.56 280.12 392.52 278.413 386.226 275C380.04 271.48 375.133 266.68 371.506 260.6C367.986 254.413 366.226 247.427 366.226 239.64C366.226 231.853 367.986 224.92 371.506 218.84C375.133 212.653 380.04 207.853 386.226 204.44C392.52 201.027 399.56 199.32 407.346 199.32C415.56 199.32 422.866 201.293 429.266 205.24C435.773 209.187 440.573 214.627 443.666 221.56V199.96H448.786ZM407.506 275.32C414.333 275.32 420.466 273.827 425.906 270.84C431.453 267.747 435.773 263.48 438.866 258.04C442.066 252.6 443.666 246.467 443.666 239.64C443.666 232.813 442.066 226.733 438.866 221.4C435.773 215.96 431.453 211.747 425.906 208.76C420.466 205.773 414.333 204.28 407.506 204.28C400.68 204.28 394.493 205.773 388.946 208.76C383.506 211.747 379.24 215.96 376.146 221.4C373.053 226.733 371.506 232.813 371.506 239.64C371.506 246.573 373.053 252.76 376.146 258.2C379.24 263.533 383.506 267.747 388.946 270.84C394.493 273.827 400.68 275.32 407.506 275.32ZM564.42 199.96V283H559.3V260.28C556.207 267.533 551.46 273.24 545.06 277.4C538.767 281.453 531.567 283.48 523.46 283.48C515.887 283.48 509.007 281.72 502.82 278.2C496.633 274.573 491.727 269.56 488.1 263.16C484.58 256.76 482.82 249.507 482.82 241.4C482.82 233.293 484.58 226.04 488.1 219.64C491.727 213.24 496.633 208.28 502.82 204.76C509.007 201.133 515.887 199.32 523.46 199.32C531.46 199.32 538.607 201.347 544.9 205.4C551.3 209.453 556.047 215.053 559.14 222.2V199.96H564.42ZM523.62 278.68C530.34 278.68 536.367 277.133 541.7 274.04C547.14 270.84 551.407 266.413 554.5 260.76C557.593 255.107 559.14 248.653 559.14 241.4C559.14 234.147 557.593 227.747 554.5 222.2C551.407 216.547 547.14 212.173 541.7 209.08C536.367 205.88 530.34 204.28 523.62 204.28C516.9 204.28 510.82 205.88 505.38 209.08C500.047 212.173 495.833 216.547 492.74 222.2C489.647 227.747 488.1 234.147 488.1 241.4C488.1 248.653 489.647 255.107 492.74 260.76C495.833 266.413 500.047 270.84 505.38 274.04C510.82 277.133 516.9 278.68 523.62 278.68ZM647.116 199.32C657.463 199.32 665.623 202.36 671.596 208.44C677.57 214.413 680.556 223 680.556 234.2V283H675.276V234.52C675.276 224.707 672.77 217.24 667.756 212.12C662.85 206.893 655.81 204.28 646.636 204.28C636.29 204.28 628.13 207.373 622.156 213.56C616.183 219.64 613.196 227.853 613.196 238.2V283H607.916V199.96H613.036V220.28C615.703 213.773 619.97 208.653 625.836 204.92C631.81 201.187 638.903 199.32 647.116 199.32Z" fill="#1D1D1D"/>
</svg>
