<svg width="1029" height="602" viewBox="0 0 1029 602" fill="none" xmlns="http://www.w3.org/2000/svg">
<path d="M79.96 155.66C65.1467 155.66 51.7267 152.287 39.7 145.54C27.6733 138.793 18.2133 129.553 11.32 117.82C4.42667 105.94 0.980001 92.6667 0.980001 78C0.980001 63.3333 4.42667 50.1333 11.32 38.4C18.2133 26.52 27.6733 17.2067 39.7 10.46C51.7267 3.71333 65.1467 0.339998 79.96 0.339998C94.7733 0.339998 108.193 3.71333 120.22 10.46C132.247 17.2067 141.707 26.52 148.6 38.4C155.493 50.1333 158.94 63.3333 158.94 78C158.94 92.6667 155.493 105.94 148.6 117.82C141.707 129.553 132.247 138.793 120.22 145.54C108.193 152.287 94.7733 155.66 79.96 155.66ZM79.96 151.48C93.8933 151.48 106.507 148.327 117.8 142.02C129.24 135.567 138.187 126.767 144.64 115.62C151.24 104.327 154.54 91.7867 154.54 78C154.54 64.2133 151.24 51.7467 144.64 40.6C138.187 29.3067 129.24 20.5067 117.8 14.2C106.507 7.74666 93.8933 4.52 79.96 4.52C66.0267 4.52 53.34 7.74666 41.9 14.2C30.6067 20.5067 21.66 29.3067 15.06 40.6C8.60667 51.7467 5.38 64.2133 5.38 78C5.38 91.7867 8.60667 104.327 15.06 115.62C21.66 126.767 30.6067 135.567 41.9 142.02C53.34 148.327 66.0267 151.48 79.96 151.48ZM294.446 76.02C320.26 79.54 333.166 92.4467 333.166 114.74C333.166 127.793 328.473 137.767 319.086 144.66C309.846 151.553 295.986 155 277.506 155H212.166V0.99999H273.106C289.24 0.99999 301.853 4.37332 310.946 11.12C320.186 17.72 324.806 27.3267 324.806 39.94C324.806 49.62 322.093 57.54 316.666 63.7C311.386 69.7133 303.98 73.82 294.446 76.02ZM216.566 5.17999V74.7H273.986C288.8 74.7 300.24 71.7667 308.306 65.9C316.373 59.8867 320.406 51.2333 320.406 39.94C320.406 28.6467 316.373 20.0667 308.306 14.2C300.24 8.18666 288.8 5.17999 273.986 5.17999H216.566ZM278.386 150.82C311.973 150.82 328.766 138.793 328.766 114.74C328.766 102.567 324.513 93.5467 316.006 87.68C307.646 81.8133 295.106 78.88 278.386 78.88H216.566V150.82H278.386ZM390.976 177.66C383.203 177.66 375.87 175.68 368.976 171.72C362.23 167.907 356.803 162.627 352.696 155.88L355.776 153.24C360.03 159.693 365.163 164.68 371.176 168.2C377.336 171.72 384.01 173.48 391.196 173.48C402.49 173.48 410.85 170.18 416.276 163.58C421.703 157.127 424.416 147.227 424.416 133.88V5.17999H366.776V0.99999H428.816V134.32C428.816 163.213 416.203 177.66 390.976 177.66ZM597.46 134.76C591.593 141.36 583.527 146.493 573.26 150.16C563.14 153.827 551.7 155.66 538.94 155.66C520.607 155.66 506.527 151.92 496.7 144.44C486.873 136.813 481.96 126.84 481.96 114.52C481.96 104.253 485.187 95.8933 491.64 89.44C498.24 82.84 507.113 78.5867 518.26 76.68C508.727 74.3333 501.393 70.08 496.26 63.92C491.127 57.6133 488.56 49.7667 488.56 40.38C488.56 32.9 490.613 26.1533 494.72 20.14C498.827 13.98 504.913 9.13999 512.98 5.62C521.047 2.1 530.8 0.339998 542.24 0.339998C551.333 0.339998 560.06 1.51333 568.42 3.85999C576.927 6.20666 584.113 9.43333 589.98 13.54L587.78 17.06C574.433 8.7 559.327 4.52 542.46 4.52C526.473 4.52 514.227 7.89333 505.72 14.64C497.213 21.24 492.96 29.8933 492.96 40.6C492.96 51.4533 496.627 59.8867 503.96 65.9C511.44 71.7667 521.707 74.7 534.76 74.7H570.84V78.88H534.98C520.167 78.88 508.36 81.8867 499.56 87.9C490.76 93.7667 486.36 102.567 486.36 114.3C486.36 125.74 490.833 134.833 499.78 141.58C508.727 148.18 521.853 151.48 539.16 151.48C551.04 151.48 561.747 149.793 571.28 146.42C580.96 142.9 588.587 138.06 594.16 131.9L597.46 134.76ZM702.534 155.66C687.721 155.66 674.301 152.287 662.274 145.54C650.248 138.793 640.788 129.553 633.894 117.82C627.001 105.94 623.554 92.6667 623.554 78C623.554 63.3333 627.001 50.1333 633.894 38.4C640.788 26.52 650.248 17.2067 662.274 10.46C674.301 3.71333 687.721 0.339998 702.534 0.339998C712.948 0.339998 722.628 2.02666 731.574 5.4C740.668 8.62666 748.441 13.4667 754.894 19.92L752.254 23C739.348 10.68 722.774 4.52 702.534 4.52C688.601 4.52 675.914 7.74666 664.474 14.2C653.181 20.6533 644.234 29.5267 637.634 40.82C631.181 51.9667 627.954 64.36 627.954 78C627.954 91.64 631.181 104.107 637.634 115.4C644.234 126.547 653.181 135.347 664.474 141.8C675.914 148.253 688.601 151.48 702.534 151.48C722.628 151.48 739.201 145.247 752.254 132.78L754.894 135.86C748.441 142.313 740.668 147.227 731.574 150.6C722.481 153.973 712.801 155.66 702.534 155.66ZM895.46 19.7C887.247 14.7133 878.374 11.0467 868.84 8.7C859.454 6.20666 849.994 4.81333 840.46 4.52V155H836.06V4.52C826.674 4.66666 817.287 5.98666 807.9 8.48C798.514 10.9733 789.567 14.7133 781.06 19.7L778.86 16.18C796.9 5.62 816.627 0.339998 838.04 0.339998C859.747 0.339998 879.62 5.62 897.66 16.18L895.46 19.7ZM976.388 155.66C965.241 155.66 954.754 153.68 944.928 149.72C935.101 145.613 927.548 140.333 922.268 133.88L925.348 131.02C930.334 136.887 937.448 141.8 946.688 145.76C955.928 149.573 965.754 151.48 976.168 151.48C992.154 151.48 1004.18 148.327 1012.25 142.02C1020.46 135.567 1024.57 127.28 1024.57 117.16C1024.57 109.24 1022.44 102.933 1018.19 98.24C1013.93 93.5467 1008.65 90.0267 1002.35 87.68C996.188 85.3333 987.828 82.9133 977.268 80.42C965.974 77.6333 957.028 74.9933 950.428 72.5C943.828 69.86 938.181 65.9 933.488 60.62C928.941 55.1933 926.668 48.0067 926.668 39.06C926.668 32.02 928.501 25.5667 932.168 19.7C935.834 13.8333 941.554 9.13999 949.328 5.62C957.101 2.1 966.708 0.339998 978.148 0.339998C986.361 0.339998 994.428 1.65999 1002.35 4.29999C1010.27 6.79332 1017.09 10.1667 1022.81 14.42L1020.39 17.94C1014.37 13.54 1007.63 10.24 1000.15 8.03999C992.814 5.69333 985.554 4.52 978.368 4.52C962.968 4.52 951.234 7.81999 943.168 14.42C935.101 20.8733 931.068 29.16 931.068 39.28C931.068 47.2 933.194 53.58 937.448 58.42C941.701 63.1133 946.981 66.6333 953.288 68.98C959.594 71.3267 968.101 73.82 978.808 76.46C989.954 79.2467 998.828 81.96 1005.43 84.6C1012.03 87.0933 1017.6 90.98 1022.15 96.26C1026.69 101.393 1028.97 108.36 1028.97 117.16C1028.97 124.2 1027.06 130.653 1023.25 136.52C1019.43 142.387 1013.57 147.08 1005.65 150.6C997.874 153.973 988.121 155.66 976.388 155.66ZM76.44 223.34C95.2133 223.34 109.953 228.913 120.66 240.06C131.513 251.06 136.94 267.193 136.94 288.46V378H132.54V327.18H20.34V378H15.94V288.46C15.94 267.193 21.2933 251.06 32 240.06C42.8533 228.913 57.6667 223.34 76.44 223.34ZM132.54 323V288.02C132.54 268.073 127.627 253.04 117.8 242.92C107.973 232.653 94.1867 227.52 76.44 227.52C58.6933 227.52 44.9067 232.653 35.08 242.92C25.2533 253.04 20.34 268.073 20.34 288.02V323H132.54ZM264.696 223.34C283.176 223.34 297.623 228.693 308.036 239.4C318.596 249.96 323.876 265.213 323.876 285.16V378H319.476V285.38C319.476 266.46 314.71 252.087 305.176 242.26C295.643 232.433 282.076 227.52 264.476 227.52C246.73 227.52 233.09 232.727 223.556 243.14C214.17 253.407 209.476 268.953 209.476 289.78V378H205.076V224H209.476V260.74C213.436 248.42 220.11 239.107 229.496 232.8C239.03 226.493 250.763 223.34 264.696 223.34ZM392.033 224H450.333C466.32 224 480.4 227.3 492.573 233.9C504.893 240.5 514.427 249.667 521.173 261.4C528.067 273.133 531.513 286.333 531.513 301C531.513 315.667 528.067 328.867 521.173 340.6C514.427 352.333 504.893 361.5 492.573 368.1C480.4 374.7 466.32 378 450.333 378H392.033V224ZM449.893 373.82C465.293 373.82 478.787 370.74 490.373 364.58C502.107 358.273 511.127 349.62 517.433 338.62C523.887 327.473 527.113 314.933 527.113 301C527.113 287.067 523.887 274.6 517.433 263.6C511.127 252.453 502.107 243.8 490.373 237.64C478.787 231.333 465.293 228.18 449.893 228.18H396.433V373.82H449.893Z" fill="white"/>
<path d="M69.4 447C88.32 447 103.133 451.473 113.84 460.42C124.547 469.22 129.9 481.613 129.9 497.6C129.9 513.587 124.547 526.053 113.84 535C103.133 543.8 88.32 548.2 69.4 548.2H21.66V601H17.26V447H69.4ZM69.84 544.02C87.7333 544.02 101.447 539.987 110.98 531.92C120.66 523.853 125.5 512.413 125.5 497.6C125.5 482.787 120.66 471.347 110.98 463.28C101.447 455.213 87.7333 451.18 69.84 451.18H21.66V544.02H69.84ZM247.151 601.66C232.338 601.66 218.918 598.287 206.891 591.54C194.865 584.793 185.405 575.553 178.511 563.82C171.618 551.94 168.171 538.667 168.171 524C168.171 509.333 171.618 496.133 178.511 484.4C185.405 472.52 194.865 463.207 206.891 456.46C218.918 449.713 232.338 446.34 247.151 446.34C261.965 446.34 275.385 449.713 287.411 456.46C299.438 463.207 308.898 472.52 315.791 484.4C322.685 496.133 326.131 509.333 326.131 524C326.131 538.667 322.685 551.94 315.791 563.82C308.898 575.553 299.438 584.793 287.411 591.54C275.385 598.287 261.965 601.66 247.151 601.66ZM247.151 597.48C261.085 597.48 273.698 594.327 284.991 588.02C296.431 581.567 305.378 572.767 311.831 561.62C318.431 550.327 321.731 537.787 321.731 524C321.731 510.213 318.431 497.747 311.831 486.6C305.378 475.307 296.431 466.507 284.991 460.2C273.698 453.747 261.085 450.52 247.151 450.52C233.218 450.52 220.531 453.747 209.091 460.2C197.798 466.507 188.851 475.307 182.251 486.6C175.798 497.747 172.571 510.213 172.571 524C172.571 537.787 175.798 550.327 182.251 561.62C188.851 572.767 197.798 581.567 209.091 588.02C220.531 594.327 233.218 597.48 247.151 597.48ZM588.358 447V542.26C588.358 561.913 583.591 576.727 574.058 586.7C564.524 596.673 551.324 601.66 534.458 601.66C520.524 601.66 509.158 598.213 500.358 591.32C491.558 584.427 485.838 574.087 483.198 560.3C480.558 574.087 474.764 584.427 465.818 591.32C457.018 598.213 445.724 601.66 431.938 601.66C414.924 601.66 401.651 596.673 392.118 586.7C382.731 576.727 378.038 561.913 378.038 542.26V447H382.438V542.04C382.438 560.813 386.691 574.747 395.198 583.84C403.851 592.933 416.098 597.48 431.938 597.48C447.631 597.48 459.731 592.933 468.238 583.84C476.744 574.6 480.998 560.667 480.998 542.04V447H485.398V542.04C485.398 560.813 489.578 574.747 497.938 583.84C506.444 592.933 518.618 597.48 534.458 597.48C550.298 597.48 562.471 592.933 570.978 583.84C579.631 574.6 583.958 560.667 583.958 542.04V447H588.358ZM757.089 580.76C751.222 587.36 743.156 592.493 732.889 596.16C722.769 599.827 711.329 601.66 698.569 601.66C680.236 601.66 666.156 597.92 656.329 590.44C646.502 582.813 641.589 572.84 641.589 560.52C641.589 550.253 644.816 541.893 651.269 535.44C657.869 528.84 666.742 524.587 677.889 522.68C668.356 520.333 661.022 516.08 655.889 509.92C650.756 503.613 648.189 495.767 648.189 486.38C648.189 478.9 650.242 472.153 654.349 466.14C658.456 459.98 664.542 455.14 672.609 451.62C680.676 448.1 690.429 446.34 701.869 446.34C710.962 446.34 719.689 447.513 728.049 449.86C736.556 452.207 743.742 455.433 749.609 459.54L747.409 463.06C734.062 454.7 718.956 450.52 702.089 450.52C686.102 450.52 673.856 453.893 665.349 460.64C656.842 467.24 652.589 475.893 652.589 486.6C652.589 497.453 656.256 505.887 663.589 511.9C671.069 517.767 681.336 520.7 694.389 520.7H730.469V524.88H694.609C679.796 524.88 667.989 527.887 659.189 533.9C650.389 539.767 645.989 548.567 645.989 560.3C645.989 571.74 650.462 580.833 659.409 587.58C668.356 594.18 681.482 597.48 698.789 597.48C710.669 597.48 721.376 595.793 730.909 592.42C740.589 588.9 748.216 584.06 753.789 577.9L757.089 580.76ZM912.026 601L872.866 546.66C867.732 547.687 861.719 548.2 854.826 548.2H807.086V601H802.686V447H854.826C873.746 447 888.559 451.473 899.266 460.42C909.972 469.22 915.326 481.613 915.326 497.6C915.326 509.92 912.026 520.26 905.426 528.62C898.826 536.833 889.512 542.48 877.486 545.56L917.526 601H912.026ZM855.266 544.02C873.159 544.02 886.872 539.987 896.406 531.92C906.086 523.853 910.926 512.413 910.926 497.6C910.926 482.787 906.086 471.347 896.406 463.28C886.872 455.213 873.159 451.18 855.266 451.18H807.086V544.02H855.266Z" fill="#F9C25D"/>
</svg>
