<svg width="1114" height="543" viewBox="0 0 1114 543" fill="none" xmlns="http://www.w3.org/2000/svg">
<path d="M56.85 162.25C46.05 162.25 36.725 159.9 28.875 155.2C21.075 150.5 15.05 143.925 10.8 135.475C6.6 127.025 4.5 117.2 4.5 106C4.5 94.8 6.6 84.975 10.8 76.525C15.05 68.075 21.075 61.5 28.875 56.8C36.725 52.1 46.05 49.75 56.85 49.75C67.65 49.75 76.95 52.1 84.75 56.8C92.6 61.5 98.625 68.075 102.825 76.525C107.075 84.975 109.2 94.8 109.2 106C109.2 117.2 107.075 127.025 102.825 135.475C98.625 143.925 92.6 150.5 84.75 155.2C76.95 159.9 67.65 162.25 56.85 162.25ZM56.85 143.05C63.7 143.15 69.4 141.675 73.95 138.625C78.5 135.575 81.9 131.25 84.15 125.65C86.45 120.05 87.6 113.5 87.6 106C87.6 98.5 86.45 92 84.15 86.5C81.9 81 78.5 76.725 73.95 73.675C69.4 70.625 63.7 69.05 56.85 68.95C50 68.85 44.3 70.325 39.75 73.375C35.2 76.425 31.775 80.75 29.475 86.35C27.225 91.95 26.1 98.5 26.1 106C26.1 113.5 27.225 120 29.475 125.5C31.775 131 35.2 135.275 39.75 138.325C44.3 141.375 50 142.95 56.85 143.05Z" fill="#D34736"/>
<path d="M594.85 523.25C584.05 523.25 574.725 520.9 566.875 516.2C559.075 511.5 553.05 504.925 548.8 496.475C544.6 488.025 542.5 478.2 542.5 467C542.5 455.8 544.6 445.975 548.8 437.525C553.05 429.075 559.075 422.5 566.875 417.8C574.725 413.1 584.05 410.75 594.85 410.75C605.65 410.75 614.95 413.1 622.75 417.8C630.6 422.5 636.625 429.075 640.825 437.525C645.075 445.975 647.2 455.8 647.2 467C647.2 478.2 645.075 488.025 640.825 496.475C636.625 504.925 630.6 511.5 622.75 516.2C614.95 520.9 605.65 523.25 594.85 523.25ZM594.85 504.05C601.7 504.15 607.4 502.675 611.95 499.625C616.5 496.575 619.9 492.25 622.15 486.65C624.45 481.05 625.6 474.5 625.6 467C625.6 459.5 624.45 453 622.15 447.5C619.9 442 616.5 437.725 611.95 434.675C607.4 431.625 601.7 430.05 594.85 429.95C588 429.85 582.3 431.325 577.75 434.375C573.2 437.425 569.775 441.75 567.475 447.35C565.225 452.95 564.1 459.5 564.1 467C564.1 474.5 565.225 481 567.475 486.5C569.775 492 573.2 496.275 577.75 499.325C582.3 502.375 588 503.95 594.85 504.05Z" fill="#573706"/>
<path d="M707.15 518L675.5 410H696.95L717.2 484.25L737.45 410.15L758.9 410L779.15 484.25L799.4 410H820.85L789.2 518H769.1L748.175 445.1L727.25 518H707.15Z" fill="#5C83C7"/>
<path d="M232.5 160V52H275.7C283.4 52 289.625 53.55 294.375 56.65C299.125 59.7 302.6 63.55 304.8 68.2C307 72.85 308.1 77.55 308.1 82.3C308.1 88.35 306.725 93.375 303.975 97.375C301.275 101.375 297.55 104.05 292.8 105.4V101.65C299.55 103.05 304.6 106.175 307.95 111.025C311.35 115.875 313.05 121.3 313.05 127.3C313.05 133.75 311.85 139.425 309.45 144.325C307.1 149.225 303.5 153.075 298.65 155.875C293.8 158.625 287.7 160 280.35 160H232.5ZM253.2 140.8H278.25C281 140.8 283.45 140.225 285.6 139.075C287.75 137.875 289.425 136.225 290.625 134.125C291.875 131.975 292.5 129.45 292.5 126.55C292.5 124 291.975 121.725 290.925 119.725C289.875 117.725 288.275 116.15 286.125 115C284.025 113.8 281.4 113.2 278.25 113.2H253.2V140.8ZM253.2 94.15H275.4C277.7 94.15 279.75 93.75 281.55 92.95C283.35 92.15 284.775 90.925 285.825 89.275C286.875 87.575 287.4 85.4 287.4 82.75C287.4 79.45 286.375 76.675 284.325 74.425C282.275 72.175 279.3 71.05 275.4 71.05H253.2V94.15Z" fill="#573706"/>
<path d="M232.5 521V413H278.1C279.15 413 280.55 413.05 282.3 413.15C284.1 413.2 285.7 413.35 287.1 413.6C293.55 414.6 298.825 416.725 302.925 419.975C307.075 423.225 310.125 427.325 312.075 432.275C314.025 437.175 315 442.65 315 448.7C315 454.75 314 460.25 312 465.2C310.05 470.1 307 474.175 302.85 477.425C298.75 480.675 293.5 482.8 287.1 483.8C285.7 484 284.1 484.15 282.3 484.25C280.5 484.35 279.1 484.4 278.1 484.4H252.9V521H232.5ZM252.9 465.35H277.2C278.25 465.35 279.4 465.3 280.65 465.2C281.9 465.1 283.05 464.9 284.1 464.6C286.85 463.85 288.975 462.6 290.475 460.85C291.975 459.05 293 457.075 293.55 454.925C294.15 452.725 294.45 450.65 294.45 448.7C294.45 446.75 294.15 444.7 293.55 442.55C293 440.35 291.975 438.375 290.475 436.625C288.975 434.825 286.85 433.55 284.1 432.8C283.05 432.5 281.9 432.3 280.65 432.2C279.4 432.1 278.25 432.05 277.2 432.05H252.9V465.35Z" fill="#DDAF52"/>
<path d="M573.15 162.25C564.55 162.25 557.45 160.05 551.85 155.65C546.3 151.25 542.35 145.3 540 137.8L560.1 133C560.55 135.75 562 138.15 564.45 140.2C566.9 142.2 569.5 143.2 572.25 143.2C574.15 143.2 576.175 142.675 578.325 141.625C580.525 140.575 582.1 138.9 583.05 136.6C583.65 135.15 584 133.375 584.1 131.275C584.2 129.175 584.25 126.75 584.25 124V52H604.95V124C604.95 127.45 604.925 130.45 604.875 133C604.875 135.55 604.625 137.95 604.125 140.2C603.675 142.4 602.75 144.7 601.35 147.1C598.3 152.4 594.325 156.25 589.425 158.65C584.525 161.05 579.1 162.25 573.15 162.25Z" fill="#D34736"/>
<path d="M655.5 160V52H726V71.05H675.9V94.15H717V113.2H675.9V140.95H726V160H655.5Z" fill="#DDAF52"/>
<path d="M990.5 519V411H1036.1C1037.15 411 1038.55 411.05 1040.3 411.15C1042.1 411.2 1043.7 411.35 1045.1 411.6C1051.55 412.6 1056.83 414.725 1060.92 417.975C1065.08 421.225 1068.13 425.325 1070.08 430.275C1072.03 435.175 1073 440.65 1073 446.7C1073 455.75 1070.75 463.5 1066.25 469.95C1061.75 476.35 1054.7 480.3 1045.1 481.8L1036.1 482.4H1010.9V519H990.5ZM1051.4 519L1030.1 475.05L1051.1 471L1074.5 519H1051.4ZM1010.9 463.35H1035.2C1036.25 463.35 1037.4 463.3 1038.65 463.2C1039.9 463.1 1041.05 462.9 1042.1 462.6C1044.85 461.85 1046.98 460.6 1048.48 458.85C1049.98 457.05 1051 455.075 1051.55 452.925C1052.15 450.725 1052.45 448.65 1052.45 446.7C1052.45 444.75 1052.15 442.7 1051.55 440.55C1051 438.35 1049.98 436.375 1048.48 434.625C1046.98 432.825 1044.85 431.55 1042.1 430.8C1041.05 430.5 1039.9 430.3 1038.65 430.2C1037.4 430.1 1036.25 430.05 1035.2 430.05H1010.9V463.35Z" fill="#5C83C7"/>
<path d="M872.5 518V410H943V429.05H892.9V452.15H934V471.2H892.9V498.95H943V518H872.5Z" fill="#D34736"/>
<path d="M809.85 162.25C799.05 162.25 789.725 159.9 781.875 155.2C774.075 150.5 768.05 143.925 763.8 135.475C759.6 127.025 757.5 117.2 757.5 106C757.5 94.8 759.6 84.975 763.8 76.525C768.05 68.075 774.075 61.5 781.875 56.8C789.725 52.1 799.05 49.75 809.85 49.75C822.25 49.75 832.65 52.825 841.05 58.975C849.5 65.125 855.45 73.45 858.9 83.95L838.35 89.65C836.35 83.1 832.975 78.025 828.225 74.425C823.475 70.775 817.35 68.95 809.85 68.95C803 68.95 797.275 70.475 792.675 73.525C788.125 76.575 784.7 80.875 782.4 86.425C780.1 91.975 778.95 98.5 778.95 106C778.95 113.5 780.1 120.025 782.4 125.575C784.7 131.125 788.125 135.425 792.675 138.475C797.275 141.525 803 143.05 809.85 143.05C817.35 143.05 823.475 141.225 828.225 137.575C832.975 133.925 836.35 128.85 838.35 122.35L858.9 128.05C855.45 138.55 849.5 146.875 841.05 153.025C832.65 159.175 822.25 162.25 809.85 162.25Z" fill="#5C83C7"/>
<path d="M910.55 160V71.05H876.5V52H965V71.05H930.95V160H910.55Z" fill="#DDAF52"/>
<path d="M1030.3 162.25C1022.3 162.25 1015.08 160.85 1008.63 158.05C1002.23 155.2 996.95 151.15 992.8 145.9C988.7 140.6 986.1 134.3 985 127L1006.3 123.85C1007.8 130.05 1010.9 134.825 1015.6 138.175C1020.3 141.525 1025.65 143.2 1031.65 143.2C1035 143.2 1038.25 142.675 1041.4 141.625C1044.55 140.575 1047.13 139.025 1049.13 136.975C1051.18 134.925 1052.2 132.4 1052.2 129.4C1052.2 128.3 1052.03 127.25 1051.68 126.25C1051.38 125.2 1050.85 124.225 1050.1 123.325C1049.35 122.425 1048.28 121.575 1046.88 120.775C1045.53 119.975 1043.8 119.25 1041.7 118.6L1013.65 110.35C1011.55 109.75 1009.1 108.9 1006.3 107.8C1003.55 106.7 1000.88 105.125 998.275 103.075C995.675 101.025 993.5 98.325 991.75 94.975C990.05 91.575 989.2 87.3 989.2 82.15C989.2 74.9 991.025 68.875 994.675 64.075C998.325 59.275 1003.2 55.7 1009.3 53.35C1015.4 51 1022.15 49.85 1029.55 49.9C1037 50 1043.65 51.275 1049.5 53.725C1055.35 56.175 1060.25 59.75 1064.2 64.45C1068.15 69.1 1071 74.8 1072.75 81.55L1050.7 85.3C1049.9 81.8 1048.43 78.85 1046.28 76.45C1044.13 74.05 1041.55 72.225 1038.55 70.975C1035.6 69.725 1032.5 69.05 1029.25 68.95C1026.05 68.85 1023.03 69.3 1020.18 70.3C1017.38 71.25 1015.08 72.65 1013.28 74.5C1011.53 76.35 1010.65 78.55 1010.65 81.1C1010.65 83.45 1011.38 85.375 1012.83 86.875C1014.28 88.325 1016.1 89.5 1018.3 90.4C1020.5 91.3 1022.75 92.05 1025.05 92.65L1043.8 97.75C1046.6 98.5 1049.7 99.5 1053.1 100.75C1056.5 101.95 1059.75 103.65 1062.85 105.85C1066 108 1068.58 110.85 1070.58 114.4C1072.63 117.95 1073.65 122.45 1073.65 127.9C1073.65 133.7 1072.43 138.775 1069.98 143.125C1067.58 147.425 1064.33 151 1060.23 153.85C1056.13 156.65 1051.48 158.75 1046.28 160.15C1041.13 161.55 1035.8 162.25 1030.3 162.25Z" fill="#573706"/>
<path d="M324 342L357 234H387.45L420.45 342H399.45L370.05 246.75H373.95L345 342H324ZM343.8 319.5V300.45H400.8V319.5H343.8Z" fill="#5C83C7"/>
<path d="M550.5 342V234H571.2L618.15 306V234H638.85V342H618.15L571.2 270V342H550.5Z" fill="#573706"/>
<path d="M661.5 342V234H696.45C697.3 234 699.05 234.025 701.7 234.075C704.35 234.125 706.9 234.3 709.35 234.6C718.05 235.65 725.425 238.675 731.475 243.675C737.525 248.675 742.125 255.025 745.275 262.725C748.425 270.425 750 278.85 750 288C750 297.15 748.425 305.575 745.275 313.275C742.125 320.975 737.525 327.325 731.475 332.325C725.425 337.325 718.05 340.35 709.35 341.4C706.9 341.7 704.35 341.875 701.7 341.925C699.05 341.975 697.3 342 696.45 342H661.5ZM682.2 322.8H696.45C697.8 322.8 699.625 322.775 701.925 322.725C704.225 322.625 706.3 322.4 708.15 322.05C712.85 321.1 716.675 318.9 719.625 315.45C722.625 312 724.825 307.85 726.225 303C727.675 298.15 728.4 293.15 728.4 288C728.4 282.6 727.65 277.475 726.15 272.625C724.7 267.775 722.475 263.675 719.475 260.325C716.475 256.975 712.7 254.85 708.15 253.95C706.3 253.55 704.225 253.325 701.925 253.275C699.625 253.225 697.8 253.2 696.45 253.2H682.2V322.8Z" fill="#D34736"/>
</svg>
