<svg width="970" height="288" viewBox="0 0 970 288" fill="none" xmlns="http://www.w3.org/2000/svg">
<path d="M6.52 38V12.08H9.76L23.278 32.33V12.08H26.518V38H23.278L9.76 17.732V38H6.52ZM34.2513 46.64L38.0133 36.416L38.0673 39.44L29.5713 18.56H32.9373L39.5973 35.354H38.4453L44.6913 18.56H47.9492L37.3653 46.64H34.2513ZM58.6432 38.54C56.7352 38.54 55.0672 38.12 53.6392 37.28C52.2232 36.428 51.1192 35.246 50.3272 33.734C49.5352 32.21 49.1392 30.434 49.1392 28.406C49.1392 26.282 49.5292 24.446 50.3092 22.898C51.0892 21.338 52.1752 20.138 53.5672 19.298C54.9712 18.446 56.6152 18.02 58.4992 18.02C60.4552 18.02 62.1172 18.47 63.4852 19.37C64.8652 20.27 65.8972 21.554 66.5812 23.222C67.2772 24.89 67.5772 26.876 67.4812 29.18H64.2412V28.028C64.2052 25.64 63.7192 23.858 62.7832 22.682C61.8472 21.494 60.4552 20.9 58.6072 20.9C56.6272 20.9 55.1212 21.536 54.0892 22.808C53.0572 24.08 52.5412 25.904 52.5412 28.28C52.5412 30.572 53.0572 32.348 54.0892 33.608C55.1212 34.868 56.5912 35.498 58.4992 35.498C59.7832 35.498 60.8992 35.204 61.8472 34.616C62.7952 34.028 63.5392 33.182 64.0792 32.078L67.1572 33.14C66.4012 34.856 65.2612 36.188 63.7372 37.136C62.2252 38.072 60.5272 38.54 58.6432 38.54ZM51.4612 29.18V26.606H65.8252V29.18H51.4612ZM79.9128 38.54C78.0048 38.54 76.3368 38.12 74.9088 37.28C73.4928 36.428 72.3888 35.246 71.5968 33.734C70.8048 32.21 70.4088 30.434 70.4088 28.406C70.4088 26.282 70.7988 24.446 71.5788 22.898C72.3588 21.338 73.4448 20.138 74.8368 19.298C76.2408 18.446 77.8848 18.02 79.7688 18.02C81.7248 18.02 83.3868 18.47 84.7548 19.37C86.1348 20.27 87.1668 21.554 87.8508 23.222C88.5468 24.89 88.8468 26.876 88.7508 29.18H85.5108V28.028C85.4748 25.64 84.9888 23.858 84.0528 22.682C83.1168 21.494 81.7248 20.9 79.8768 20.9C77.8968 20.9 76.3908 21.536 75.3588 22.808C74.3268 24.08 73.8108 25.904 73.8108 28.28C73.8108 30.572 74.3268 32.348 75.3588 33.608C76.3908 34.868 77.8608 35.498 79.7688 35.498C81.0528 35.498 82.1688 35.204 83.1168 34.616C84.0648 34.028 84.8088 33.182 85.3488 32.078L88.4268 33.14C87.6708 34.856 86.5308 36.188 85.0068 37.136C83.4948 38.072 81.7968 38.54 79.9128 38.54ZM72.7308 29.18V26.606H87.0948V29.18H72.7308ZM115.469 38L115.487 25.562C115.487 24.11 115.097 22.976 114.317 22.16C113.549 21.332 112.547 20.918 111.311 20.918C110.591 20.918 109.907 21.086 109.259 21.422C108.611 21.746 108.083 22.262 107.675 22.97C107.267 23.666 107.063 24.56 107.063 25.652L105.371 24.968C105.347 23.588 105.629 22.382 106.217 21.35C106.817 20.306 107.633 19.496 108.665 18.92C109.697 18.344 110.861 18.056 112.157 18.056C114.185 18.056 115.781 18.674 116.945 19.91C118.109 21.134 118.691 22.784 118.691 24.86L118.673 38H115.469ZM92.2129 38V18.56H95.0749V23.762H95.4349V38H92.2129ZM103.859 38L103.877 25.688C103.877 24.2 103.493 23.036 102.725 22.196C101.957 21.344 100.937 20.918 99.6649 20.918C98.4049 20.918 97.3849 21.35 96.6049 22.214C95.8249 23.078 95.4349 24.224 95.4349 25.652L93.7429 24.644C93.7429 23.384 94.0429 22.256 94.6429 21.26C95.2429 20.264 96.0589 19.484 97.0909 18.92C98.1229 18.344 99.2929 18.056 100.601 18.056C101.909 18.056 103.049 18.332 104.021 18.884C104.993 19.436 105.743 20.228 106.271 21.26C106.799 22.28 107.063 23.498 107.063 24.914L107.045 38H103.859ZM128.905 38.54C127.453 38.54 126.235 38.276 125.251 37.748C124.279 37.208 123.541 36.5 123.037 35.624C122.545 34.748 122.299 33.788 122.299 32.744C122.299 31.724 122.491 30.842 122.875 30.098C123.271 29.342 123.823 28.718 124.531 28.226C125.239 27.722 126.085 27.326 127.069 27.038C127.993 26.786 129.025 26.57 130.165 26.39C131.317 26.198 132.481 26.024 133.657 25.868C134.833 25.712 135.931 25.562 136.951 25.418L135.799 26.084C135.835 24.356 135.487 23.078 134.755 22.25C134.035 21.422 132.787 21.008 131.011 21.008C129.835 21.008 128.803 21.278 127.915 21.818C127.039 22.346 126.421 23.21 126.061 24.41L123.019 23.492C123.487 21.788 124.393 20.45 125.737 19.478C127.081 18.506 128.851 18.02 131.047 18.02C132.811 18.02 134.323 18.338 135.583 18.974C136.855 19.598 137.767 20.546 138.319 21.818C138.595 22.418 138.769 23.072 138.841 23.78C138.913 24.476 138.949 25.208 138.949 25.976V38H136.105V33.338L136.771 33.77C136.039 35.342 135.013 36.53 133.693 37.334C132.385 38.138 130.789 38.54 128.905 38.54ZM129.391 35.858C130.543 35.858 131.539 35.654 132.379 35.246C133.231 34.826 133.915 34.28 134.431 33.608C134.947 32.924 135.283 32.18 135.439 31.376C135.619 30.776 135.715 30.11 135.727 29.378C135.751 28.634 135.763 28.064 135.763 27.668L136.879 28.154C135.835 28.298 134.809 28.436 133.801 28.568C132.793 28.7 131.839 28.844 130.939 29C130.039 29.144 129.229 29.318 128.509 29.522C127.981 29.69 127.483 29.906 127.015 30.17C126.559 30.434 126.187 30.776 125.899 31.196C125.623 31.604 125.485 32.114 125.485 32.726C125.485 33.254 125.617 33.758 125.881 34.238C126.157 34.718 126.577 35.108 127.141 35.408C127.717 35.708 128.467 35.858 129.391 35.858ZM150.836 38V12.08H153.752L163.544 32.726L173.282 12.08H176.234V37.982H173.192V19.118L164.39 38H162.68L153.878 19.118V38H150.836ZM189.562 38.54C187.63 38.54 185.962 38.102 184.558 37.226C183.166 36.35 182.092 35.138 181.336 33.59C180.58 32.042 180.202 30.266 180.202 28.262C180.202 26.222 180.586 24.434 181.354 22.898C182.122 21.362 183.208 20.168 184.612 19.316C186.016 18.452 187.666 18.02 189.562 18.02C191.506 18.02 193.18 18.458 194.584 19.334C195.988 20.198 197.062 21.404 197.806 22.952C198.562 24.488 198.94 26.258 198.94 28.262C198.94 30.29 198.562 32.078 197.806 33.626C197.05 35.162 195.97 36.368 194.566 37.244C193.162 38.108 191.494 38.54 189.562 38.54ZM189.562 35.498C191.578 35.498 193.078 34.826 194.062 33.482C195.046 32.138 195.538 30.398 195.538 28.262C195.538 26.066 195.04 24.32 194.044 23.024C193.048 21.716 191.554 21.062 189.562 21.062C188.206 21.062 187.09 21.368 186.214 21.98C185.338 22.592 184.684 23.438 184.252 24.518C183.82 25.598 183.604 26.846 183.604 28.262C183.604 30.446 184.108 32.198 185.116 33.518C186.124 34.838 187.606 35.498 189.562 35.498ZM202.903 38V18.56H205.765V23.258L205.297 22.646C205.525 22.046 205.819 21.494 206.179 20.99C206.551 20.486 206.965 20.072 207.421 19.748C207.925 19.34 208.495 19.028 209.131 18.812C209.767 18.596 210.415 18.47 211.075 18.434C211.735 18.386 212.353 18.428 212.929 18.56V21.566C212.257 21.386 211.519 21.338 210.715 21.422C209.911 21.506 209.167 21.8 208.483 22.304C207.859 22.748 207.373 23.288 207.025 23.924C206.689 24.56 206.455 25.25 206.323 25.994C206.191 26.726 206.125 27.476 206.125 28.244V38H202.903ZM223.495 47.18C222.475 47.18 221.479 47.024 220.507 46.712C219.535 46.4 218.641 45.926 217.825 45.29C217.021 44.666 216.349 43.874 215.809 42.914L218.743 41.366C219.223 42.314 219.901 43.004 220.777 43.436C221.665 43.868 222.577 44.084 223.513 44.084C224.749 44.084 225.775 43.856 226.591 43.4C227.407 42.956 228.007 42.29 228.391 41.402C228.787 40.514 228.979 39.41 228.967 38.09V32.78H229.345V18.56H232.189V38.126C232.189 38.654 232.171 39.164 232.135 39.656C232.111 40.148 232.051 40.634 231.955 41.114C231.703 42.494 231.205 43.628 230.461 44.516C229.717 45.416 228.757 46.082 227.581 46.514C226.405 46.958 225.043 47.18 223.495 47.18ZM223.261 38.54C221.449 38.54 219.895 38.09 218.599 37.19C217.303 36.278 216.301 35.048 215.593 33.5C214.897 31.952 214.549 30.206 214.549 28.262C214.549 26.318 214.897 24.572 215.593 23.024C216.301 21.476 217.303 20.258 218.599 19.37C219.895 18.47 221.443 18.02 223.243 18.02C225.079 18.02 226.621 18.464 227.869 19.352C229.117 20.24 230.059 21.458 230.695 23.006C231.343 24.554 231.667 26.306 231.667 28.262C231.667 30.194 231.343 31.94 230.695 33.5C230.059 35.048 229.117 36.278 227.869 37.19C226.621 38.09 225.085 38.54 223.261 38.54ZM223.657 35.606C224.965 35.606 226.039 35.294 226.879 34.67C227.719 34.034 228.337 33.164 228.733 32.06C229.141 30.944 229.345 29.678 229.345 28.262C229.345 26.822 229.141 25.556 228.733 24.464C228.337 23.36 227.725 22.502 226.897 21.89C226.069 21.266 225.019 20.954 223.747 20.954C222.427 20.954 221.335 21.278 220.471 21.926C219.619 22.574 218.983 23.45 218.563 24.554C218.155 25.658 217.951 26.894 217.951 28.262C217.951 29.642 218.161 30.89 218.581 32.006C219.001 33.11 219.631 33.986 220.471 34.634C221.323 35.282 222.385 35.606 223.657 35.606ZM242.741 38.54C241.289 38.54 240.071 38.276 239.087 37.748C238.115 37.208 237.377 36.5 236.873 35.624C236.381 34.748 236.135 33.788 236.135 32.744C236.135 31.724 236.327 30.842 236.711 30.098C237.107 29.342 237.659 28.718 238.367 28.226C239.075 27.722 239.921 27.326 240.905 27.038C241.829 26.786 242.861 26.57 244.001 26.39C245.153 26.198 246.317 26.024 247.493 25.868C248.669 25.712 249.767 25.562 250.787 25.418L249.635 26.084C249.671 24.356 249.323 23.078 248.591 22.25C247.871 21.422 246.623 21.008 244.847 21.008C243.671 21.008 242.639 21.278 241.751 21.818C240.875 22.346 240.257 23.21 239.897 24.41L236.855 23.492C237.323 21.788 238.229 20.45 239.573 19.478C240.917 18.506 242.687 18.02 244.883 18.02C246.647 18.02 248.159 18.338 249.419 18.974C250.691 19.598 251.603 20.546 252.155 21.818C252.431 22.418 252.605 23.072 252.677 23.78C252.749 24.476 252.785 25.208 252.785 25.976V38H249.941V33.338L250.607 33.77C249.875 35.342 248.849 36.53 247.529 37.334C246.221 38.138 244.625 38.54 242.741 38.54ZM243.227 35.858C244.379 35.858 245.375 35.654 246.215 35.246C247.067 34.826 247.751 34.28 248.267 33.608C248.783 32.924 249.119 32.18 249.275 31.376C249.455 30.776 249.551 30.11 249.563 29.378C249.587 28.634 249.599 28.064 249.599 27.668L250.715 28.154C249.671 28.298 248.645 28.436 247.637 28.568C246.629 28.7 245.675 28.844 244.775 29C243.875 29.144 243.065 29.318 242.345 29.522C241.817 29.69 241.319 29.906 240.851 30.17C240.395 30.434 240.023 30.776 239.735 31.196C239.459 31.604 239.321 32.114 239.321 32.726C239.321 33.254 239.453 33.758 239.717 34.238C239.993 34.718 240.413 35.108 240.977 35.408C241.553 35.708 242.303 35.858 243.227 35.858ZM271.307 38V28.262C271.307 27.338 271.223 26.45 271.055 25.598C270.899 24.746 270.617 23.984 270.209 23.312C269.813 22.628 269.273 22.088 268.589 21.692C267.917 21.296 267.065 21.098 266.033 21.098C265.229 21.098 264.497 21.236 263.837 21.512C263.189 21.776 262.631 22.184 262.163 22.736C261.695 23.288 261.329 23.984 261.065 24.824C260.813 25.652 260.687 26.63 260.687 27.758L258.581 27.11C258.581 25.226 258.917 23.612 259.589 22.268C260.273 20.912 261.227 19.874 262.451 19.154C263.687 18.422 265.139 18.056 266.807 18.056C268.067 18.056 269.141 18.254 270.029 18.65C270.917 19.046 271.655 19.574 272.243 20.234C272.831 20.882 273.293 21.614 273.629 22.43C273.965 23.234 274.199 24.056 274.331 24.896C274.475 25.724 274.547 26.51 274.547 27.254V38H271.307ZM257.447 38V18.56H260.327V23.762H260.687V38H257.447Z" fill="#D34736"/>
<path d="M25.2375 170.125C21.2875 170.125 17.725 169.438 14.55 168.062C11.4 166.687 8.8 164.725 6.75 162.175C4.725 159.6 3.4375 156.55 2.8875 153.025L12.2625 151.6C13.0625 154.8 14.7 157.275 17.175 159.025C19.675 160.775 22.55 161.65 25.8 161.65C27.725 161.65 29.5375 161.35 31.2375 160.75C32.9375 160.15 34.3125 159.275 35.3625 158.125C36.4375 156.975 36.975 155.562 36.975 153.887C36.975 153.137 36.85 152.45 36.6 151.825C36.35 151.175 35.975 150.6 35.475 150.1C35 149.6 34.375 149.15 33.6 148.75C32.85 148.325 31.975 147.962 30.975 147.662L17.025 143.537C15.825 143.187 14.525 142.725 13.125 142.15C11.75 141.55 10.4375 140.737 9.1875 139.712C7.9625 138.662 6.95 137.337 6.15 135.737C5.375 134.112 4.9875 132.112 4.9875 129.737C4.9875 126.262 5.8625 123.35 7.6125 121C9.3875 118.625 11.7625 116.85 14.7375 115.675C17.7375 114.5 21.0625 113.925 24.7125 113.95C28.4125 113.975 31.7125 114.612 34.6125 115.862C37.5125 117.087 39.9375 118.875 41.8875 121.225C43.8375 123.575 45.2125 126.412 46.0125 129.737L36.3 131.425C35.9 129.525 35.125 127.912 33.975 126.587C32.85 125.237 31.4625 124.212 29.8125 123.512C28.1875 122.812 26.45 122.437 24.6 122.387C22.8 122.362 21.125 122.637 19.575 123.212C18.05 123.762 16.8125 124.562 15.8625 125.612C14.9375 126.662 14.475 127.887 14.475 129.287C14.475 130.612 14.875 131.7 15.675 132.55C16.475 133.375 17.4625 134.037 18.6375 134.537C19.8375 135.012 21.05 135.412 22.275 135.737L31.95 138.437C33.275 138.787 34.7625 139.262 36.4125 139.862C38.0625 140.462 39.65 141.3 41.175 142.375C42.7 143.45 43.95 144.862 44.925 146.612C45.925 148.362 46.425 150.587 46.425 153.287C46.425 156.087 45.8375 158.55 44.6625 160.675C43.5125 162.775 41.95 164.525 39.975 165.925C38 167.325 35.7375 168.375 33.1875 169.075C30.6625 169.775 28.0125 170.125 25.2375 170.125ZM77.3795 170.125C71.9795 170.125 67.3545 168.95 63.5045 166.6C59.6545 164.225 56.692 160.925 54.617 156.7C52.567 152.475 51.542 147.575 51.542 142C51.542 136.425 52.567 131.525 54.617 127.3C56.692 123.075 59.6545 119.787 63.5045 117.437C67.3545 115.062 71.9795 113.875 77.3795 113.875C82.7795 113.875 87.4045 115.062 91.2545 117.437C95.1295 119.787 98.092 123.075 100.142 127.3C102.217 131.525 103.254 136.425 103.254 142C103.254 147.575 102.217 152.475 100.142 156.7C98.092 160.925 95.1295 164.225 91.2545 166.6C87.4045 168.95 82.7795 170.125 77.3795 170.125ZM77.3795 161.612C81.0045 161.637 84.017 160.837 86.417 159.212C88.842 157.587 90.6545 155.3 91.8545 152.35C93.0795 149.4 93.692 145.95 93.692 142C93.692 138.05 93.0795 134.625 91.8545 131.725C90.6545 128.8 88.842 126.525 86.417 124.9C84.017 123.275 81.0045 122.437 77.3795 122.387C73.7545 122.362 70.742 123.162 68.342 124.787C65.942 126.412 64.1295 128.7 62.9045 131.65C61.7045 134.6 61.1045 138.05 61.1045 142C61.1045 145.95 61.7045 149.387 62.9045 152.312C64.1045 155.212 65.9045 157.475 68.3045 159.1C70.7295 160.725 73.7545 161.562 77.3795 161.612ZM110.719 169V115H143.231V124.037H119.756V137.5H138.731V146.5H119.756V169H110.719ZM162.952 169V123.475H145.477V115H189.464V123.475H171.989V169H162.952ZM208.204 169V115H230.517C231.042 115 231.717 115.025 232.542 115.075C233.367 115.1 234.129 115.175 234.829 115.3C237.954 115.775 240.529 116.812 242.554 118.412C244.604 120.012 246.117 122.037 247.092 124.487C248.092 126.912 248.592 129.612 248.592 132.587C248.592 135.537 248.092 138.237 247.092 140.687C246.092 143.112 244.567 145.125 242.517 146.725C240.492 148.325 237.929 149.362 234.829 149.837C234.129 149.937 233.354 150.012 232.504 150.063C231.679 150.112 231.017 150.137 230.517 150.137H217.242V169H208.204ZM217.242 141.7H230.142C230.642 141.7 231.204 141.675 231.829 141.625C232.454 141.575 233.029 141.475 233.554 141.325C235.054 140.95 236.229 140.287 237.079 139.337C237.954 138.387 238.567 137.312 238.917 136.112C239.292 134.912 239.479 133.737 239.479 132.587C239.479 131.437 239.292 130.262 238.917 129.062C238.567 127.837 237.954 126.75 237.079 125.8C236.229 124.85 235.054 124.187 233.554 123.812C233.029 123.662 232.454 123.575 231.829 123.55C231.204 123.5 230.642 123.475 230.142 123.475H217.242V141.7ZM278.942 170.125C273.542 170.125 268.917 168.95 265.067 166.6C261.217 164.225 258.254 160.925 256.179 156.7C254.129 152.475 253.104 147.575 253.104 142C253.104 136.425 254.129 131.525 256.179 127.3C258.254 123.075 261.217 119.787 265.067 117.437C268.917 115.062 273.542 113.875 278.942 113.875C284.342 113.875 288.967 115.062 292.817 117.437C296.692 119.787 299.654 123.075 301.704 127.3C303.779 131.525 304.817 136.425 304.817 142C304.817 147.575 303.779 152.475 301.704 156.7C299.654 160.925 296.692 164.225 292.817 166.6C288.967 168.95 284.342 170.125 278.942 170.125ZM278.942 161.612C282.567 161.637 285.579 160.837 287.979 159.212C290.404 157.587 292.217 155.3 293.417 152.35C294.642 149.4 295.254 145.95 295.254 142C295.254 138.05 294.642 134.625 293.417 131.725C292.217 128.8 290.404 126.525 287.979 124.9C285.579 123.275 282.567 122.437 278.942 122.387C275.317 122.362 272.304 123.162 269.904 124.787C267.504 126.412 265.692 128.7 264.467 131.65C263.267 134.6 262.667 138.05 262.667 142C262.667 145.95 263.267 149.387 264.467 152.312C265.667 155.212 267.467 157.475 269.867 159.1C272.292 160.725 275.317 161.562 278.942 161.612ZM321.411 169L305.623 115H315.111L325.873 154L336.598 115.075L346.086 115L356.848 154L367.573 115H377.061L361.311 169H352.386L341.323 130.6L330.336 169H321.411ZM383.18 169V115H418.055V123.475H392.217V136.787H413.555V145.262H392.217V160.525H418.055V169H383.18ZM427.052 169V115H449.364C449.889 115 450.564 115.025 451.389 115.075C452.214 115.1 452.977 115.175 453.677 115.3C456.802 115.775 459.377 116.812 461.402 118.412C463.452 120.012 464.964 122.037 465.939 124.487C466.939 126.912 467.439 129.612 467.439 132.587C467.439 136.987 466.327 140.775 464.102 143.95C461.877 147.1 458.464 149.05 453.864 149.8L450.002 150.137H436.089V169H427.052ZM458.064 169L447.414 147.025L456.602 145L468.302 169H458.064ZM436.089 141.7H448.989C449.489 141.7 450.052 141.675 450.677 141.625C451.302 141.575 451.877 141.475 452.402 141.325C453.902 140.95 455.077 140.287 455.927 139.337C456.802 138.387 457.414 137.312 457.764 136.112C458.139 134.912 458.327 133.737 458.327 132.587C458.327 131.437 458.139 130.262 457.764 129.062C457.414 127.837 456.802 126.75 455.927 125.8C455.077 124.85 453.902 124.187 452.402 123.812C451.877 123.662 451.302 123.575 450.677 123.55C450.052 123.5 449.489 123.475 448.989 123.475H436.089V141.7ZM478.063 169V159.737H487.326V169H478.063Z" fill="#D34736"/>
<path d="M379.25 266V212H388.288V234.725H413.863V212H422.863V266H413.863V243.2H388.288V266H379.25ZM429.626 266L446.651 212H459.888L476.913 266H467.613L452.163 217.55H454.188L438.926 266H429.626ZM439.113 254.3V245.862H467.463V254.3H439.113ZM483.693 266V212H506.006C506.531 212 507.206 212.025 508.031 212.075C508.856 212.1 509.618 212.175 510.318 212.3C513.443 212.775 516.018 213.812 518.043 215.412C520.093 217.012 521.606 219.037 522.581 221.487C523.581 223.912 524.081 226.612 524.081 229.587C524.081 233.987 522.968 237.775 520.743 240.95C518.518 244.1 515.106 246.05 510.506 246.8L506.643 247.137H492.731V266H483.693ZM514.706 266L504.056 244.025L513.243 242L524.943 266H514.706ZM492.731 238.7H505.631C506.131 238.7 506.693 238.675 507.318 238.625C507.943 238.575 508.518 238.475 509.043 238.325C510.543 237.95 511.718 237.287 512.568 236.337C513.443 235.387 514.056 234.312 514.406 233.112C514.781 231.912 514.968 230.737 514.968 229.587C514.968 228.437 514.781 227.262 514.406 226.062C514.056 224.837 513.443 223.75 512.568 222.8C511.718 221.85 510.543 221.187 509.043 220.812C508.518 220.662 507.943 220.575 507.318 220.55C506.693 220.5 506.131 220.475 505.631 220.475H492.731V238.7ZM533.205 266V212H550.418C550.868 212 551.755 212.012 553.08 212.037C554.43 212.062 555.73 212.15 556.98 212.3C561.255 212.85 564.868 214.375 567.818 216.875C570.793 219.35 573.043 222.512 574.568 226.362C576.093 230.212 576.855 234.425 576.855 239C576.855 243.575 576.093 247.787 574.568 251.637C573.043 255.487 570.793 258.662 567.818 261.162C564.868 263.637 561.255 265.15 556.98 265.7C555.755 265.85 554.468 265.937 553.118 265.962C551.768 265.987 550.868 266 550.418 266H533.205ZM542.393 257.487H550.418C551.168 257.487 552.118 257.462 553.268 257.412C554.443 257.362 555.48 257.25 556.38 257.075C558.93 256.6 561.005 255.462 562.605 253.662C564.205 251.862 565.38 249.675 566.13 247.1C566.905 244.525 567.293 241.825 567.293 239C567.293 236.075 566.905 233.325 566.13 230.75C565.355 228.175 564.155 226.012 562.53 224.262C560.93 222.512 558.88 221.4 556.38 220.925C555.48 220.725 554.443 220.612 553.268 220.587C552.118 220.537 551.168 220.512 550.418 220.512H542.393V257.487ZM600.734 266V212H608.872L627.547 250.25L646.222 212H654.359V266H645.922V231.387L629.347 266H625.747L609.209 231.387V266H600.734ZM661.145 266L678.17 212H691.407L708.432 266H699.132L683.682 217.55H685.707L670.445 266H661.145ZM670.632 254.3V245.862H698.982V254.3H670.632ZM715.212 266V212H737.524C738.049 212 738.724 212.025 739.549 212.075C740.374 212.1 741.137 212.175 741.837 212.3C744.962 212.775 747.537 213.812 749.562 215.412C751.612 217.012 753.124 219.037 754.099 221.487C755.099 223.912 755.599 226.612 755.599 229.587C755.599 233.987 754.487 237.775 752.262 240.95C750.037 244.1 746.624 246.05 742.024 246.8L738.162 247.137H724.249V266H715.212ZM746.224 266L735.574 244.025L744.762 242L756.462 266H746.224ZM724.249 238.7H737.149C737.649 238.7 738.212 238.675 738.837 238.625C739.462 238.575 740.037 238.475 740.562 238.325C742.062 237.95 743.237 237.287 744.087 236.337C744.962 235.387 745.574 234.312 745.924 233.112C746.299 231.912 746.487 230.737 746.487 229.587C746.487 228.437 746.299 227.262 745.924 226.062C745.574 224.837 744.962 223.75 744.087 222.8C743.237 221.85 742.062 221.187 740.562 220.812C740.037 220.662 739.462 220.575 738.837 220.55C738.212 220.5 737.649 220.475 737.149 220.475H724.249V238.7ZM786.999 267.125C783.499 267.125 780.211 266.513 777.136 265.287C774.086 264.037 771.399 262.212 769.074 259.812C766.774 257.412 764.974 254.475 763.674 251C762.374 247.5 761.724 243.5 761.724 239C761.724 233.1 762.824 228.062 765.024 223.887C767.224 219.687 770.236 216.475 774.061 214.25C777.886 212 782.199 210.875 786.999 210.875C793.649 210.875 798.911 212.425 802.786 215.525C806.686 218.6 809.324 222.925 810.699 228.5L801.474 229.962C800.449 226.762 798.774 224.212 796.449 222.312C794.124 220.387 791.161 219.425 787.561 219.425C783.936 219.375 780.924 220.162 778.524 221.787C776.124 223.412 774.311 225.7 773.086 228.65C771.886 231.6 771.286 235.05 771.286 239C771.286 242.95 771.886 246.387 773.086 249.312C774.286 252.212 776.086 254.475 778.486 256.1C780.911 257.725 783.936 258.562 787.561 258.612C790.286 258.637 792.674 258.15 794.724 257.15C796.774 256.125 798.449 254.587 799.749 252.537C801.049 250.462 801.924 247.875 802.374 244.775H792.849V237.687H811.974C812.024 238.087 812.061 238.675 812.086 239.45C812.111 240.225 812.124 240.687 812.124 240.837C812.124 245.937 811.111 250.475 809.086 254.45C807.086 258.4 804.211 261.5 800.461 263.75C796.711 266 792.224 267.125 786.999 267.125ZM820.405 266V212H829.443V266H820.405ZM840.676 266V212H849.826L874.876 250.062V212H884.026V266H874.876L849.826 227.937V266H840.676ZM914.496 267.125C910.546 267.125 906.984 266.438 903.809 265.062C900.659 263.687 898.059 261.725 896.009 259.175C893.984 256.6 892.696 253.55 892.146 250.025L901.521 248.6C902.321 251.8 903.959 254.275 906.434 256.025C908.934 257.775 911.809 258.65 915.059 258.65C916.984 258.65 918.796 258.35 920.496 257.75C922.196 257.15 923.571 256.275 924.621 255.125C925.696 253.975 926.234 252.562 926.234 250.887C926.234 250.137 926.109 249.45 925.859 248.825C925.609 248.175 925.234 247.6 924.734 247.1C924.259 246.6 923.634 246.15 922.859 245.75C922.109 245.325 921.234 244.962 920.234 244.662L906.284 240.537C905.084 240.187 903.784 239.725 902.384 239.15C901.009 238.55 899.696 237.737 898.446 236.712C897.221 235.662 896.209 234.337 895.409 232.737C894.634 231.112 894.246 229.112 894.246 226.737C894.246 223.262 895.121 220.35 896.871 218C898.646 215.625 901.021 213.85 903.996 212.675C906.996 211.5 910.321 210.925 913.971 210.95C917.671 210.975 920.971 211.612 923.871 212.862C926.771 214.087 929.196 215.875 931.146 218.225C933.096 220.575 934.471 223.412 935.271 226.737L925.559 228.425C925.159 226.525 924.384 224.912 923.234 223.587C922.109 222.237 920.721 221.212 919.071 220.512C917.446 219.812 915.709 219.437 913.859 219.387C912.059 219.362 910.384 219.637 908.834 220.212C907.309 220.762 906.071 221.562 905.121 222.612C904.196 223.662 903.734 224.887 903.734 226.287C903.734 227.612 904.134 228.7 904.934 229.55C905.734 230.375 906.721 231.037 907.896 231.537C909.096 232.012 910.309 232.412 911.534 232.737L921.209 235.437C922.534 235.787 924.021 236.262 925.671 236.862C927.321 237.462 928.909 238.3 930.434 239.375C931.959 240.45 933.209 241.862 934.184 243.612C935.184 245.362 935.684 247.587 935.684 250.287C935.684 253.087 935.096 255.55 933.921 257.675C932.771 259.775 931.209 261.525 929.234 262.925C927.259 264.325 924.996 265.375 922.446 266.075C919.921 266.775 917.271 267.125 914.496 267.125ZM943.396 266V256.737H952.659V266H943.396Z" fill="#D34736"/>
</svg>
