<svg width="204" height="42" viewBox="0 0 204 42" fill="none" xmlns="http://www.w3.org/2000/svg">
<g clip-path="url(#clip0_65_4178)">
<path d="M15.0741 0.120361L8.33725 10.6279L1.50892 0.120361H1.15836L0.0914307 16.0846H2.13383L2.80447 5.50189L8.07814 13.6794H8.47443L13.7786 5.50189L14.4492 16.0846H16.5069L15.4399 0.120361H15.0741Z" fill="black"/>
<path d="M28.1821 0.120361L20.9117 16.0846H23.0151L24.7527 12.1461H31.9316L33.6691 16.0395H35.8182L28.6393 0.120361H28.1821ZM28.3193 3.99867L31.1847 10.4475H25.4233L28.3193 3.99867Z" fill="black"/>
<path d="M42.6923 0.450928H40.6346V16.0844H42.6923V0.450928Z" fill="black"/>
<path d="M49.6426 0.165283V16.0844H51.6545V4.87037L62.6743 16.2948H63.0249V0.450895H60.9825V11.695L50.0084 0.165283H49.6426Z" fill="black"/>
<path d="M79.7604 0.450928V2.10447H72.0328V7.23045H79.2269V8.9291H72.0328V14.3858H80.1109V16.0844H69.9904V0.450928H79.7604Z" fill="black"/>
<path d="M91.71 8.26777C91.71 3.4725 95.1089 0.24057 100.276 0.24057C102.273 0.0601836 104.269 0.676504 105.809 1.93921L104.605 3.35224C104.025 2.84114 103.339 2.45031 102.593 2.20979C101.846 1.96927 101.068 1.87908 100.276 1.93921C99.4071 1.87908 98.5383 1.99934 97.7305 2.29998C96.9227 2.60063 96.1758 3.06663 95.5661 3.66791C94.9565 4.2692 94.4687 4.99075 94.1639 5.80249C93.8591 6.5992 93.7219 7.45603 93.7828 8.31287C93.7219 9.15467 93.8286 10.0115 94.1334 10.8082C94.423 11.6049 94.8955 12.3265 95.5052 12.9278C96.1148 13.529 96.8312 13.995 97.639 14.2957C98.4468 14.5963 99.3004 14.7166 100.169 14.6715C101.983 14.6715 103.751 14.0702 105.168 12.9428L106.281 14.446C104.528 15.844 102.318 16.5505 100.078 16.4303C98.9803 16.4904 97.8829 16.31 96.8465 15.9342C95.8253 15.5434 94.8803 14.9571 94.1029 14.1905C93.3256 13.4238 92.7007 12.5069 92.3044 11.4997C91.8929 10.4925 91.71 9.41022 91.7404 8.3279" fill="black"/>
<path d="M110 8.26772C110 6.07301 110.884 3.9685 112.454 2.42019C114.024 0.871868 116.158 0 118.383 0C120.608 0 122.742 0.871868 124.312 2.42019C125.882 3.9685 126.766 6.07301 126.766 8.26772C126.766 13.1081 123.459 16.2799 118.414 16.2799C117.316 16.3701 116.219 16.2198 115.182 15.844C114.146 15.4681 113.201 14.8969 112.408 14.1303C111.616 13.3787 111.006 12.4617 110.595 11.4395C110.198 10.4324 110.015 9.35004 110.076 8.25268H110V8.26772ZM124.663 8.26772C124.708 7.44094 124.571 6.59914 124.282 5.81747C123.992 5.03579 123.535 4.31424 122.956 3.71296C122.376 3.11167 121.675 2.63064 120.898 2.29993C120.121 1.96922 119.282 1.80387 118.429 1.80387C117.575 1.80387 116.752 1.96922 115.96 2.29993C115.182 2.63064 114.481 3.11167 113.902 3.71296C113.323 4.31424 112.866 5.03579 112.576 5.81747C112.286 6.59914 112.149 7.44094 112.195 8.26772C112.149 9.09449 112.286 9.93629 112.576 10.718C112.866 11.4996 113.323 12.2212 113.902 12.8225C114.481 13.4238 115.182 13.9048 115.96 14.2355C116.737 14.5662 117.575 14.7316 118.429 14.7316C119.282 14.7316 120.121 14.5662 120.898 14.2355C121.675 13.9048 122.376 13.4238 122.956 12.8225C123.535 12.2212 123.992 11.4996 124.282 10.718C124.571 9.93629 124.708 9.09449 124.663 8.26772Z" fill="black"/>
<path d="M140.789 16.0844H131.72V0.450928H133.732V14.3858H140.789V16.0844Z" fill="black"/>
<path d="M154.201 16.0844H145.102V0.450928H147.16V14.3858H154.201V16.0844Z" fill="black"/>
<path d="M168.3 0.450928V2.10447H160.542V7.23045H167.721V8.9291H160.542V14.3858H168.666V16.0844H158.53V0.450928H168.3Z" fill="black"/>
<path d="M187.535 14.8818C185.676 15.904 183.557 16.385 181.439 16.2798C176.393 16.2798 173.04 13.0629 173.04 8.26762C173.04 3.47235 176.348 0.240423 181.53 0.240423C183.588 0.105133 185.615 0.736486 187.23 1.98416L186.026 3.38216C184.746 2.39003 183.161 1.84887 181.53 1.87893C180.676 1.83384 179.823 1.96913 179.015 2.2848C178.222 2.58545 177.491 3.06648 176.881 3.66777C176.272 4.26906 175.814 4.9906 175.509 5.78731C175.205 6.58402 175.083 7.42582 175.128 8.26762C175.083 9.10943 175.205 9.95123 175.509 10.7479C175.814 11.5446 176.287 12.2512 176.881 12.8524C177.491 13.4537 178.207 13.9197 179 14.2204C179.792 14.521 180.646 14.6563 181.515 14.6262C182.871 14.7014 184.228 14.4609 185.478 13.9197V9.9362H181.515V8.28266H187.49L187.52 14.8968L187.535 14.8818Z" fill="black"/>
<path d="M193.159 0.450928V16.0844H203.28V14.3858H195.202V8.9291H202.381V7.23045H195.202V2.10447H202.96V0.450928H193.159Z" fill="black"/>
<path d="M0 33.8976C0 29.0572 3.29223 25.8854 8.33727 25.8854C9.43468 25.8403 10.5321 26.0057 11.5533 26.3965C12.5745 26.7723 13.5195 27.3586 14.3121 28.1102C15.1046 28.8618 15.7295 29.7637 16.1716 30.7558C16.5983 31.748 16.827 32.8303 16.827 33.9126C16.827 34.9949 16.5983 36.0622 16.1716 37.0694C15.7448 38.0615 15.1046 38.9634 14.3121 39.715C13.5195 40.4666 12.5745 41.0529 11.5533 41.4287C10.5321 41.8045 9.43468 41.9849 8.33727 41.9398C7.23986 42.045 6.12721 41.8947 5.09076 41.5339C4.05432 41.1732 3.10933 40.5869 2.31675 39.8203C1.52418 39.0536 0.914508 38.1367 0.533463 37.1145C0.137176 36.0923 -0.0152418 35.01 0.0609672 33.9126H0.0152418L0 33.8976ZM14.6321 33.8976C14.6321 32.2591 13.9767 30.6957 12.8031 29.5382C11.6295 28.3808 10.0444 27.7344 8.38299 27.7344C6.72164 27.7344 5.13649 28.3808 3.96287 29.5382C2.78925 30.6957 2.13385 32.2591 2.13385 33.8976C2.13385 35.5361 2.78925 37.0994 3.96287 38.2569C5.13649 39.4144 6.72164 40.0608 8.38299 40.0608C10.0444 40.0608 11.6295 39.4144 12.8031 38.2569C13.9767 37.0994 14.6321 35.5361 14.6321 33.8976Z" fill="black"/>
<path d="M30.5598 26.126V27.7795H23.2742V33.3565H30.0568V35.01H23.2742V41.7144H21.2318V26.126H30.5598Z" fill="black"/>
<path d="M42.3569 37.8209L40.6194 41.7143H38.5312L45.8168 25.7952H46.2131L53.392 41.7143H51.2582L49.5054 37.8209H42.3569ZM43.119 36.1674H48.8652L46.015 29.7186L43.119 36.1674Z" fill="black"/>
<path d="M62.3543 35.6413C61.9428 35.6714 61.516 35.6714 61.1045 35.6413H58.9706V41.6542H56.913V26.0808H61.6532C65.5246 26.0808 67.8413 27.1631 67.8413 30.6807C67.8718 31.7029 67.567 32.695 66.9421 33.5218C66.3324 34.3335 65.4484 34.9348 64.4577 35.1903L68.9235 41.564L68.8321 41.6842H66.5915L62.3543 35.6413ZM65.7532 30.846C65.7532 28.486 64.229 27.8396 61.6532 27.8396H58.9249V34.0779H61.6532C64.2748 34.0779 65.7532 33.1309 65.7532 30.9061" fill="black"/>
<path d="M70.661 27.7795V26.126H83.6775V27.7795H78.1905V41.7144H76.1481V27.7795H70.661Z" fill="black"/>
<path d="M103.08 38.9785L104.848 41.5039L104.711 41.7144H102.699L101.632 40.136C100.123 41.2935 98.2639 41.9248 96.3587 41.9248C93.417 41.9248 91.146 40.4216 91.146 37.2498C91.146 34.078 93.4628 32.665 96.0081 32.0336L92.0453 26.4567L92.2129 26.126H102.791V27.7795H95.246L102.029 37.4603C103.05 35.8368 103.553 33.9427 103.461 32.0336H105.504C105.504 34.544 104.65 36.9943 103.096 38.9785H103.08ZM100.657 38.7831L97.0293 33.612C96.0539 33.6421 95.1241 34.0179 94.423 34.6943C93.7219 35.3558 93.2799 36.2577 93.2036 37.2047C93.2036 39.3994 94.6211 40.2112 96.5416 40.2112C98.0505 40.2112 99.4985 39.67 100.657 38.7079" fill="black"/>
<path d="M130.257 33.8976C130.257 39.1438 127.041 41.7143 121.553 41.7143H115.975V26.0808H121.614C127.056 26.0808 130.318 28.6513 130.318 33.8976H130.257ZM128.214 33.8976C128.214 29.5983 125.669 27.7794 121.614 27.7794H118.048V40.0608H121.614C125.669 40.0608 128.214 38.1968 128.214 33.8976Z" fill="black"/>
<path d="M144.264 26.126V27.7795H136.948V32.9055H143.685V34.6041H136.948V40.0608H144.569V41.7144H134.936V26.126H144.264Z" fill="black"/>
<path d="M148.272 39.5647L149.797 38.4523C150.239 39.0385 150.818 39.5196 151.473 39.8503C152.129 40.181 152.875 40.3313 153.622 40.3012C155.451 40.3012 157.113 39.6849 157.113 37.7458C157.113 36.0922 155.954 35.4759 153.5 34.5589C151.046 33.642 149.05 32.9054 149.05 30.1846C149.05 27.4637 151.412 25.9154 154.354 25.9154C155.863 25.8553 157.356 26.2311 158.637 26.9977L157.661 28.501C156.686 27.8696 155.527 27.5539 154.354 27.584C152.403 27.584 151.107 28.2905 151.107 29.8989C151.107 31.5074 152.129 32.0035 154.842 33.0407C157.555 34.0779 159.17 34.9047 159.17 37.4602C159.17 40.7372 156.549 41.9698 153.637 41.9698C152.616 42.06 151.58 41.8947 150.635 41.4738C149.69 41.0529 148.882 40.4065 148.288 39.5797" fill="black"/>
<path d="M165.983 26.126H163.926V41.7595H165.983V26.126Z" fill="black"/>
<path d="M185.036 40.5119C183.176 41.5491 181.073 42.0301 178.939 41.9249C177.841 42.0001 176.729 41.8648 175.692 41.489C174.656 41.1132 173.711 40.5269 172.918 39.7753C172.126 39.0237 171.501 38.1067 171.104 37.0845C170.693 36.0774 170.51 34.98 170.571 33.8977C170.571 29.1024 173.863 25.8855 179.045 25.8855C181.103 25.7503 183.13 26.3666 184.746 27.6142L183.542 29.0273C182.277 28.0201 180.676 27.494 179.045 27.5241C177.384 27.5992 175.829 28.3057 174.686 29.4933C173.543 30.6808 172.903 32.2592 172.903 33.8827C172.903 35.5062 173.543 37.0996 174.686 38.2721C175.829 39.4596 177.399 40.1661 179.045 40.2413C180.402 40.3165 181.759 40.0759 183.008 39.5498V35.4911H179V33.8376H184.975V40.4518L185.051 40.4969L185.036 40.5119Z" fill="black"/>
<path d="M189.852 25.8403V41.7143H191.864V30.5153L202.868 41.9699H203.234V26.1259H201.177V37.37L190.202 25.8403H189.852Z" fill="black"/>
</g>
<defs>
<clipPath id="clip0_65_4178">
<rect width="203.28" height="42" fill="white"/>
</clipPath>
</defs>
</svg>
